<svg width="32" height="32" viewBox="0 0 32 32" fill="none" xmlns="http://www.w3.org/2000/svg">
<path d="M16.0001 15.1579C17.9767 15.1579 19.579 13.5555 19.579 11.5789C19.579 9.60235 17.9767 8 16.0001 8C14.0235 8 12.4211 9.60235 12.4211 11.5789C12.4211 13.5555 14.0235 15.1579 16.0001 15.1579Z" fill="#8C919C"/>
<path d="M16 16C12.512 16 9.68427 18.8277 9.68427 22.3158C9.68427 23.2459 10.4383 24 11.3685 24H20.6316C21.5618 24 22.3159 23.2459 22.3159 22.3158C22.3158 18.8277 19.4881 16 16 16Z" fill="#8C919C"/>
<path fill-rule="evenodd" clip-rule="evenodd" d="M6 2C3.79086 2 2 3.79086 2 6V26C2 28.2091 3.79086 30 6 30H26C28.2091 30 30 28.2091 30 26V6C30 3.79086 28.2091 2 26 2H6ZM6 4C4.89543 4 4 4.89543 4 6V26C4 27.1046 4.89543 28 6 28H26C27.1046 28 28 27.1046 28 26V6C28 4.89543 27.1046 4 26 4H6Z" fill="#8C919C"/>
</svg>
