<svg width="32" height="32" viewBox="0 0 32 32" fill="none" xmlns="http://www.w3.org/2000/svg">
<path d="M18.0002 1.15471C16.7626 0.440172 15.2378 0.440165 14.0002 1.15469L4.14363 6.84529C2.90602 7.55982 2.14362 8.88033 2.14362 10.3094V21.6905C2.14362 23.1195 2.90601 24.4401 4.14362 25.1546L14.0001 30.8452C15.2378 31.5598 16.7626 31.5598 18.0002 30.8452L27.8564 25.1546C29.094 24.4401 29.8564 23.1196 29.8564 21.6905V10.3094C29.8564 8.88032 29.094 7.55981 27.8564 6.84528L18.0002 1.15471ZM4.01871 11.8965C4.01871 11.1267 4.85188 10.6456 5.51855 11.0303L13.5621 15.6723C14.4906 16.2081 15.0626 17.1986 15.0626 18.2706V27.5614C15.0626 28.3312 14.2293 28.8124 13.5626 28.4275L5.51872 23.7834C4.59051 23.2475 4.01871 22.2571 4.01871 21.1853V11.8965ZM18.4377 28.4274C17.771 28.8123 16.9377 28.3312 16.9377 27.5614V18.2706C16.9377 17.1986 17.5097 16.2081 18.4382 15.6722L26.4814 11.0304C27.1481 10.6457 27.9813 11.1268 27.9813 11.8965V21.1854C27.9813 22.2571 27.4095 23.2475 26.4813 23.7834L18.4377 28.4274Z" fill="#2853EB"/>
</svg>
