<svg width="22" height="24" viewBox="0 0 22 24" fill="none" xmlns="http://www.w3.org/2000/svg">
<path d="M13.0001 1.15468C11.7625 0.440146 10.2377 0.440138 9.00007 1.15466L2.60768 4.84526C1.37007 5.55979 0.607666 6.88031 0.607666 8.30938V15.6905C0.607666 17.1195 1.37006 18.4401 2.60767 19.1546L9.00006 22.8452C10.2377 23.5598 11.7625 23.5597 13.0001 22.8452L19.3923 19.1546C20.6299 18.4401 21.3922 17.1196 21.3922 15.6905V8.30935C21.3922 6.88029 20.6299 5.55979 19.3923 4.84526L13.0001 1.15468ZM2.01399 9.35523C2.01399 8.58551 2.84716 8.10438 3.51383 8.48911L8.79642 11.5377C9.7249 12.0735 10.2969 13.064 10.2969 14.136V20.238C10.2969 21.0078 9.46358 21.489 8.79692 21.1041L3.514 18.054C2.58579 17.5181 2.01399 16.5277 2.01399 15.4559V9.35523ZM13.2032 21.104C12.5366 21.489 11.7032 21.0078 11.7032 20.238V14.136C11.7032 13.064 12.2752 12.0735 13.2037 11.5377L18.4861 8.48918C19.1527 8.10444 19.9859 8.58558 19.9859 9.3553V15.456C19.9859 16.5278 19.4141 17.5181 18.4859 18.054L13.2032 21.104Z" fill="#222222"/>
</svg>
