<svg width="24" height="24" viewBox="0 0 24 24" fill="none" xmlns="http://www.w3.org/2000/svg">
<path d="M7.8592 7.02382L9.52922 7.02382L9.52504 5.84169L5.84165 5.8417L5.84165 9.52508L7.0196 9.52508L7.02378 7.85924L7.0196 7.02382L7.8592 7.02382Z" fill="#8C919C" stroke="#8C919C" stroke-width="0.5"/>
<path d="M7.0196 16.9762L7.8592 16.9762L9.52922 16.9762L9.52504 18.1583L5.84165 18.1583L5.84165 14.4749L7.0196 14.4749L7.02378 16.1408L7.0196 16.9762Z" fill="#8C919C" stroke="#8C919C" stroke-width="0.5"/>
<path d="M16.1408 7.02382L14.4708 7.02382L14.475 5.84169L18.1583 5.8417L18.1583 9.52508L16.9804 9.52508L16.9762 7.85924L16.9804 7.02382L16.1408 7.02382Z" fill="#8C919C" stroke="#8C919C" stroke-width="0.5"/>
<path d="M16.9804 16.9762L16.1408 16.9762L14.4708 16.9762L14.475 18.1583L18.1583 18.1583L18.1583 14.4749L16.9804 14.4749L16.9762 16.1408L16.9804 16.9762Z" fill="#8C919C" stroke="#8C919C" stroke-width="0.5"/>
</svg>
