<svg width="32" height="32" viewBox="0 0 32 32" fill="none" xmlns="http://www.w3.org/2000/svg">
<g clip-path="url(#clip0)">
<path d="M12.7866 20.6112L12.357 23.1628C12.2985 23.5116 12.4416 23.8631 12.7272 24.0713C13.0132 24.2791 13.393 24.3069 13.7055 24.1431L15.9996 22.9456L18.2936 24.1433C18.4293 24.2138 18.5781 24.2492 18.7252 24.2492C18.9179 24.2492 19.1102 24.1889 19.2724 24.0715C19.5582 23.8634 19.7018 23.5118 19.6428 23.163L19.2136 20.6114L21.0608 18.7994C21.3134 18.552 21.4034 18.1827 21.295 17.8467C21.1862 17.5109 20.895 17.265 20.5455 17.2134L17.9858 16.8338L16.833 14.5166C16.6766 14.2003 16.3527 14 15.9993 14C15.6467 14 15.323 14.2003 15.1653 14.5166L14.0135 16.8338L11.4538 17.2132C11.1037 17.2648 10.8138 17.5106 10.7048 17.8465C10.5958 18.1825 10.6855 18.5522 10.9386 18.7992L12.7866 20.6112Z" fill="#8C919C"/>
<path d="M27.0006 4.97671H24.0696V3.35095C24.0696 2.60481 23.4648 2 22.7185 2H22.5042C21.7581 2 21.1535 2.60481 21.1535 3.35095V4.97671H10.8123V3.35095C10.8123 2.60481 10.2075 2 9.46157 2H9.2471C8.50096 2 7.89638 2.60481 7.89638 3.35095V4.97671H4.99953C3.46665 4.97671 2.21912 6.22379 2.21912 7.75712V27.2198C2.21912 28.7522 3.46665 30.0002 4.99953 30.0002H27.0008C28.5335 30.0002 29.7812 28.7525 29.7812 27.2198V7.75712C29.781 6.22379 28.5332 4.97671 27.0006 4.97671ZM27.6378 26.8571C27.6378 27.4093 27.1901 27.8571 26.6378 27.8571H5.36228C4.81 27.8571 4.36228 27.4093 4.36228 26.8571V11.7066C4.36228 11.1543 4.81 10.7066 5.36228 10.7066H26.6378C27.1901 10.7066 27.6378 11.1543 27.6378 11.7066V26.8571Z" fill="#8C919C"/>
</g>
<defs>
<clipPath id="clip0">
<rect width="28" height="28" fill="white" transform="translate(2 2)"/>
</clipPath>
</defs>
</svg>
