<svg width="243" height="36" viewBox="0 0 243 36" fill="none" xmlns="http://www.w3.org/2000/svg">
<g clip-path="url(#clip0)">
<path d="M36.4286 23.369C35.9966 23.8079 35.4726 24.032 34.8567 24.032C34.2408 24.032 33.7261 23.8079 33.2848 23.369C32.8528 22.9301 32.6322 22.3979 32.6322 21.7722C32.6322 21.1466 32.8528 20.6237 33.2848 20.1754C33.7169 19.7366 34.2408 19.5125 34.8567 19.5125C35.4726 19.5125 35.9874 19.7366 36.4286 20.1754C36.8606 20.6143 37.0812 21.1466 37.0812 21.7722C37.0812 22.3979 36.8698 22.9301 36.4286 23.369Z" fill="#040D27"/>
<path d="M47.1653 10.0347C48.5993 10.0347 49.7667 10.5203 50.6951 11.4914C51.6327 12.4626 52.1107 13.8072 52.1107 15.5254V23.3972C52.1107 23.5559 51.9912 23.6773 51.835 23.6773H49.013C48.8567 23.6773 48.7372 23.5559 48.7372 23.3972V15.9643C48.7372 15.0772 48.4982 14.4048 48.0294 13.9473C47.5606 13.4711 46.9355 13.2283 46.145 13.2283C45.2717 13.2283 43.2678 13.2283 43.2678 13.2283C43.2678 13.2283 43.2678 15.432 43.2678 16.5245V23.4159C43.2678 23.5746 43.1483 23.696 42.9921 23.696H40.1701C40.0138 23.696 39.8943 23.5746 39.8943 23.4159V10.2308C39.8943 10.0721 40.0138 9.95068 40.1701 9.95068H43.2678C44.7386 9.95068 45.3912 10.0347 47.1653 10.0347Z" fill="#040D27"/>
<path d="M56.918 18.4577C57.3684 20.1199 58.6002 20.9509 60.6041 20.9509C61.799 20.9509 62.7275 20.5681 63.3893 19.8024C63.472 19.6997 63.6191 19.6716 63.7294 19.737L65.9815 21.0536C66.1286 21.1377 66.1653 21.3431 66.0642 21.4739C64.7773 23.192 62.9389 24.0511 60.5489 24.0511C58.3887 24.0511 56.6514 23.3881 55.3461 22.0621C54.0408 20.7362 53.3882 19.0647 53.3882 17.0384C53.3882 15.0401 54.0316 13.3686 55.3185 12.0426C56.6055 10.698 58.26 10.0256 60.2823 10.0256C62.2035 10.0256 63.7754 10.698 65.0163 12.0426C66.2757 13.3873 66.9007 15.0494 66.9007 17.0384C66.9007 17.4119 66.8731 17.7947 66.8088 18.2056C66.7904 18.3457 66.6709 18.4484 66.533 18.4484H56.918V18.4577ZM56.872 15.7964H63.5364C63.3433 14.8907 62.9481 14.2183 62.3322 13.7795C61.7439 13.3406 61.0637 13.1165 60.2915 13.1165C59.3815 13.1165 58.6369 13.3593 58.0394 13.8355C57.4511 14.293 57.0559 14.9467 56.872 15.7964Z" fill="#040D27"/>
<path d="M74.2455 13.7046H71.5706V19.2326C71.5706 19.6902 71.6809 20.0263 71.9107 20.2411C72.1405 20.4559 72.4714 20.5772 72.9035 20.6146C73.2712 20.6333 73.7124 20.6239 74.2272 20.6053C74.3834 20.5959 74.5213 20.7267 74.5213 20.8854V23.444C74.5213 23.584 74.411 23.7148 74.2639 23.7241C72.0762 23.9482 70.5227 23.7148 69.6035 23.0331C68.6659 22.3234 68.1879 21.0628 68.1879 19.2326V13.7046V10.4083V7.28014C68.1879 7.12139 68.3074 7 68.4636 7H71.2856C71.4419 7 71.5614 7.12139 71.5614 7.28014V10.4083H74.2363C74.3926 10.4083 74.5121 10.5297 74.5121 10.6885V13.4244C74.5213 13.5739 74.3926 13.7046 74.2455 13.7046Z" fill="#040D27"/>
<path d="M91.1131 10.4084H94.1097C94.2936 10.4084 94.4315 10.5952 94.3763 10.7726L90.3961 23.4908C90.3593 23.6028 90.249 23.6869 90.1295 23.6869H87.3167C87.1972 23.6869 87.0869 23.6028 87.0501 23.4908L84.7061 15.6377L82.3621 23.4908C82.3253 23.6122 82.2242 23.6869 82.0955 23.6869H79.2827C79.1632 23.6869 79.0529 23.6122 79.0161 23.4908L75.0451 10.7726C74.9899 10.5952 75.1186 10.4084 75.3116 10.4084H78.3083C78.4278 10.4084 78.5381 10.4925 78.5749 10.6139L80.7442 18.5604L83.0607 10.6045C83.0975 10.4831 83.1986 10.4084 83.3273 10.4084H86.1033C86.2228 10.4084 86.3331 10.4925 86.3699 10.6045L88.6955 18.5884L90.8649 10.6139C90.8833 10.4925 90.9936 10.4084 91.1131 10.4084Z" fill="#040D27"/>
<path d="M106.014 22.0432C104.672 23.3878 103.036 24.0601 101.096 24.0601C99.1661 24.0601 97.5207 23.3878 96.1786 22.0432C94.855 20.6798 94.1931 19.0177 94.1931 17.0474C94.1931 15.0865 94.855 13.4243 96.1786 12.0797C97.5207 10.7163 99.1569 10.0347 101.096 10.0347C103.036 10.0347 104.672 10.7163 106.014 12.0797C107.356 13.4243 108.027 15.0771 108.027 17.0474C108.027 19.0177 107.356 20.6798 106.014 22.0432ZM98.5594 19.6807C99.2396 20.3717 100.085 20.7172 101.096 20.7172C102.108 20.7172 102.953 20.3717 103.634 19.6807C104.314 18.9897 104.654 18.1119 104.654 17.0474C104.654 15.9829 104.314 15.1051 103.634 14.4141C102.953 13.7231 102.108 13.3776 101.096 13.3776C100.085 13.3776 99.2396 13.7231 98.5594 14.4141C97.8976 15.1051 97.5667 15.9829 97.5667 17.0474C97.5667 18.1119 97.8976 18.9897 98.5594 19.6807Z" fill="#040D27"/>
<path d="M116.392 10.3148V13.1815C116.392 13.3403 116.272 13.4617 116.116 13.4617H113.634C112.963 13.4617 112.421 14.0126 112.421 14.6943V17.3369V23.4065C112.421 23.5652 112.301 23.6866 112.145 23.6866H109.323C109.167 23.6866 109.047 23.5652 109.047 23.4065V13.2282C109.047 11.4634 110.454 10.0347 112.191 10.0347H116.116C116.263 10.0347 116.392 10.1654 116.392 10.3148Z" fill="#040D27"/>
<path d="M121.098 17.6638V23.416C121.098 23.5747 120.979 23.6961 120.823 23.6961H118.001C117.844 23.6961 117.725 23.5747 117.725 23.416V7.28014C117.725 7.12139 117.844 7 118.001 7H120.823C120.979 7 121.098 7.12139 121.098 7.28014V17.6638Z" fill="#040D27"/>
<path d="M126.053 16.7018C125.887 16.9072 125.887 17.1967 126.053 17.4021L130.713 23.2196C130.86 23.4064 130.732 23.6772 130.483 23.6772H126.88C126.705 23.6772 126.54 23.5931 126.43 23.4624L121.576 17.4021C121.411 17.1967 121.411 16.9072 121.576 16.7018L126.43 10.6415C126.54 10.5015 126.705 10.4268 126.88 10.4268H130.483C130.722 10.4268 130.86 10.6976 130.713 10.8843L126.053 16.7018Z" fill="#040D27"/>
<path d="M29.7919 15.5349C29.7275 13.8168 29.3231 12.4721 28.3763 11.501C27.4479 10.5298 26.2713 10.147 24.8465 10.0443C24.1846 9.99759 22.7874 9.93222 21.3718 9.92289C19.6161 9.91355 17.8604 9.9509 17.8604 9.9509C17.7041 9.9509 17.5846 10.0723 17.5846 10.231V12.3601V21.5392V23.6682V29.0001H20.9581V26.4042V20.6801C20.9581 20.6801 20.9581 20.1572 20.9581 19.4942C20.9581 18.7939 20.9581 17.9441 20.9581 17.3838V16.5154V13.2192C20.9581 13.2192 22.962 13.2192 23.8353 13.2192C24.6167 13.2192 25.2509 13.4619 25.7197 13.9382C26.1885 14.3957 26.4275 15.068 26.4275 15.9551V16.0952V17.9441C26.4275 18.8312 26.1885 19.5035 25.7197 19.9611C25.2509 20.4373 24.6258 20.6801 23.8353 20.6801C23.247 20.6801 21.4913 20.6801 21.4913 20.6801V23.8643C22.576 23.8737 23.3114 23.9297 24.8556 23.8643C26.2896 23.8083 27.4662 23.3787 28.3855 22.4076C29.2403 21.5205 29.6816 20.3159 29.7643 18.8219C29.7735 18.7939 29.8011 18.7752 29.8011 18.7378C29.7919 18.7378 29.8654 17.3745 29.7919 15.5349Z" fill="#040D27"/>
<path fill-rule="evenodd" clip-rule="evenodd" d="M13.5125 9.95068H14.7534L15.7278 11.2113L15.1027 12.0144L13.5125 9.95068ZM15.9943 10.8656L16.3252 10.4361C16.4723 10.24 16.3436 9.95983 16.0954 9.95983H15.2957L15.9943 10.8656ZM9.94611 12.8452L9.33942 13.6296L11.6007 16.571C11.6053 16.5664 11.6076 16.5617 11.6099 16.557C11.6122 16.5524 11.6145 16.5477 11.6191 16.543L12.2074 15.7867L9.94611 12.8452ZM13.8525 23.8544H14.9923L8.19006 15.1328L7.62015 15.8612L13.8525 23.8544ZM15.5347 23.855L8.45669 14.7786L9.07257 13.9849L16.3436 23.4161C16.4447 23.6122 16.3252 23.855 16.0954 23.855H15.5347ZM11.0953 11.3511L11.702 10.5667L13.9632 13.4988L13.3566 14.2832L11.0953 11.3511ZM10.8284 11.6968L10.2125 12.4998L12.4738 15.4319L13.0896 14.6289L10.8284 11.6968ZM7.35373 16.2165L7.10554 16.5433C6.94008 16.7581 6.94008 17.0662 7.10554 17.281L12.005 23.6401C12.1153 23.7801 12.2808 23.8642 12.4646 23.8642H13.3195L7.35373 16.2165ZM12.4643 9.95068H12.9791L14.8359 12.3599L14.2384 13.1442L11.9771 10.2121L12.0047 10.1748C12.115 10.0347 12.2897 9.95068 12.4643 9.95068Z" fill="url(#paint0_linear)"/>
<path d="M4.77044 16.5344C4.9359 16.7491 4.9359 17.0573 4.77044 17.2721L0.0640223 23.379C-0.0830533 23.5751 0.0456379 23.8552 0.293828 23.8552H3.93395C4.1086 23.8552 4.28325 23.7712 4.39356 23.6311L9.28382 17.2721C9.44928 17.0573 9.44928 16.7491 9.28382 16.5344L4.38437 10.1753C4.27406 10.0352 4.1086 9.95117 3.92476 9.95117H0.293828C0.0548301 9.95117 -0.0830533 10.2406 0.0640223 10.4274L4.77044 16.5344Z" fill="#040D27"/>
</g>
<path opacity="0.7" d="M150.438 24H158.722V22.2997H152.413V18.2919H158.217V16.598H152.413V12.6094H158.646V10.9091H150.438V24ZM163.179 14.1818H161.082L164.099 19.0909L161.044 24H163.141L165.346 20.331L167.558 24H169.648L166.56 19.0909L169.622 14.1818H167.532L165.346 18.0043L163.179 14.1818ZM172.125 27.6818H174.036V22.4723H174.151C174.496 23.0987 175.199 24.1918 176.989 24.1918C179.367 24.1918 181.093 22.2869 181.093 19.1101C181.093 15.9268 179.341 14.054 176.97 14.054C175.148 14.054 174.49 15.1662 174.151 15.7734H173.991V14.1818H172.125V27.6818ZM173.997 19.0909C173.997 17.0391 174.892 15.6776 176.561 15.6776C178.293 15.6776 179.162 17.1413 179.162 19.0909C179.162 21.0597 178.267 22.5618 176.561 22.5618C174.918 22.5618 173.997 21.1555 173.997 19.0909ZM185.685 10.9091H183.774V24H185.685V10.9091ZM192.932 24.1982C195.7 24.1982 197.509 22.1719 197.509 19.1357C197.509 16.0803 195.7 14.054 192.932 14.054C190.164 14.054 188.355 16.0803 188.355 19.1357C188.355 22.1719 190.164 24.1982 192.932 24.1982ZM192.938 22.5938C191.129 22.5938 190.286 21.0149 190.286 19.1293C190.286 17.25 191.129 15.652 192.938 15.652C194.735 15.652 195.578 17.25 195.578 19.1293C195.578 21.0149 194.735 22.5938 192.938 22.5938ZM200.182 24H202.093V18.0043C202.093 16.7195 203.084 15.7926 204.439 15.7926C204.835 15.7926 205.283 15.8629 205.436 15.9077V14.0795C205.245 14.054 204.867 14.0348 204.625 14.0348C203.474 14.0348 202.49 14.6868 202.132 15.7415H202.029V14.1818H200.182V24ZM211.51 24.1982C213.652 24.1982 215.166 23.1435 215.601 21.5455L213.792 21.2195C213.447 22.1463 212.616 22.6193 211.529 22.6193C209.893 22.6193 208.794 21.5582 208.742 19.6662H215.723V18.9886C215.723 15.4411 213.6 14.054 211.376 14.054C208.64 14.054 206.838 16.1378 206.838 19.1548C206.838 22.2038 208.615 24.1982 211.51 24.1982ZM208.749 18.2344C208.826 16.8409 209.836 15.6328 211.389 15.6328C212.872 15.6328 213.843 16.7322 213.85 18.2344H208.749ZM218.383 24H220.294V18.0043C220.294 16.7195 221.285 15.7926 222.64 15.7926C223.037 15.7926 223.484 15.8629 223.637 15.9077V14.0795C223.446 14.054 223.069 14.0348 222.826 14.0348C221.675 14.0348 220.691 14.6868 220.333 15.7415H220.23V14.1818H218.383V24Z" fill="#040D27"/>
<path opacity="0.7" d="M141.568 10.4602H140.426V24.8125H141.568V10.4602Z" fill="#040D27"/>
<defs>
<linearGradient id="paint0_linear" x1="40.9929" y1="24.2858" x2="8.45388" y2="16.6593" gradientUnits="userSpaceOnUse">
<stop offset="0.848958" stop-color="#040D27"/>
<stop offset="1" stop-color="#040D27" stop-opacity="0.4"/>
</linearGradient>
<clipPath id="clip0">
<rect width="130.778" height="22" fill="white" transform="translate(0 7)"/>
</clipPath>
</defs>
</svg>
