<svg width="32" height="32" viewBox="0 0 32 32" fill="none" xmlns="http://www.w3.org/2000/svg">
<g clip-path="url(#clip0)">
<path d="M2.00001 22.5H2.55002C2.96451 22.5 3.335 22.757 3.48101 23.145C3.53802 23.295 3.59948 23.4425 3.66552 23.5875C3.83855 23.9655 3.75903 24.4109 3.46554 24.7055L3.07502 25.1C2.68555 25.4905 2.68555 26.1225 3.07502 26.513L4.48799 27.9259C4.87851 28.3154 5.5105 28.3154 5.90097 27.9259L6.29348 27.5349C6.58797 27.2414 7.03345 27.1619 7.4115 27.335C7.55651 27.4015 7.70399 27.463 7.85399 27.5195C8.242 27.665 8.49951 28.0354 8.49998 28.45V29C8.49998 29.5525 8.94746 30 9.49999 30H11.4999C12.0524 30 12.5 29.5525 12.5 29V28.45C12.5 28.0355 12.7569 27.665 13.145 27.519C13.295 27.462 13.4424 27.4005 13.5874 27.3345C13.9654 27.1615 14.4109 27.241 14.7055 27.5345L15.098 27.9255C15.4885 28.3149 16.1205 28.3149 16.511 27.9255L17.9239 26.5125C18.3134 26.122 18.3134 25.49 17.9239 25.0995L17.5329 24.707C17.2394 24.4125 17.1599 23.967 17.333 23.589C17.3995 23.444 17.461 23.2965 17.5175 23.1465C17.663 22.7575 18.0345 22.5 18.45 22.5H19C19.5525 22.5 20 22.0525 20 21.5V19.5C20 18.9475 19.5525 18.5 19 18.5H18.45C18.0355 18.5 17.665 18.243 17.519 17.855C17.462 17.705 17.4005 17.5575 17.3345 17.4125C17.161 17.0345 17.241 16.5891 17.5345 16.2945L17.9255 15.902C18.3149 15.5115 18.3149 14.8795 17.9255 14.489L16.5124 13.0761C16.1218 12.6866 15.4899 12.6866 15.0994 13.0761L14.7069 13.4671C14.4124 13.7605 13.9669 13.8401 13.5889 13.667C13.4438 13.6005 13.2964 13.539 13.1464 13.4825C12.7574 13.337 12.4998 12.9656 12.4998 12.55V12C12.4998 11.4475 12.0524 11 11.4998 11H9.49993C8.94746 11 8.49992 11.4475 8.49992 12V12.55C8.49992 12.9645 8.24293 13.335 7.85493 13.481C7.70493 13.538 7.55745 13.5995 7.41243 13.6655C7.03445 13.8385 6.58897 13.759 6.29442 13.4655L5.89991 13.075C5.50939 12.6855 4.8774 12.6855 4.48694 13.075L3.07596 14.489C2.68649 14.8795 2.68649 15.5115 3.07596 15.9019L3.46695 16.2945C3.76044 16.5889 3.84042 17.0344 3.66693 17.4125C3.60042 17.5575 3.5389 17.705 3.48242 17.855C3.3364 18.2434 2.96492 18.5005 2.54991 18.5H2.00001C1.44753 18.5 1 18.9474 1 19.5V21.5C1 22.0524 1.44753 22.5 2.00001 22.5ZM9.49993 16.625C9.82694 16.5425 10.1629 16.5005 10.4999 16.5001C10.6655 16.5011 10.8309 16.5125 10.9955 16.534C11.043 16.5396 11.0894 16.5481 11.136 16.5556C11.2575 16.5745 11.3765 16.5996 11.494 16.6296C11.537 16.6406 11.5805 16.6501 11.623 16.6625C11.775 16.706 11.924 16.7585 12.0695 16.82C12.087 16.8275 12.103 16.837 12.1195 16.8445C12.2464 16.901 12.3705 16.9645 12.4909 17.034C12.5314 17.0575 12.5709 17.084 12.6109 17.1065C12.711 17.17 12.8109 17.238 12.906 17.3095C12.9375 17.3335 12.9705 17.356 13.0015 17.381C13.122 17.478 13.2375 17.5815 13.3465 17.691C13.367 17.712 13.385 17.7345 13.4049 17.756C13.4929 17.8485 13.5764 17.9455 13.6549 18.0465C13.684 18.0835 13.712 18.1215 13.74 18.16C13.8115 18.26 13.8789 18.36 13.9399 18.468C13.9579 18.4986 13.978 18.528 13.9954 18.559C14.0714 18.6955 14.1389 18.837 14.1985 18.9815C14.2119 19.015 14.2229 19.0496 14.236 19.0816C14.28 19.198 14.319 19.3166 14.352 19.4376C14.365 19.4846 14.377 19.5315 14.3885 19.5791C14.419 19.7096 14.443 19.8416 14.4605 19.9746C14.4645 20.004 14.4705 20.0326 14.474 20.062C14.4905 20.2075 14.4994 20.3535 14.5 20.5C14.5 20.52 14.5 20.5395 14.497 20.5595C14.497 20.602 14.4925 20.6455 14.4905 20.6885C14.4845 20.817 14.473 20.944 14.455 21.0695C14.447 21.1285 14.4385 21.187 14.428 21.246C14.411 21.3354 14.3889 21.4225 14.3664 21.51C14.2429 22.015 14.0404 22.4975 13.7664 22.9395C13.7155 23.022 13.6534 23.098 13.5829 23.1645C13.3285 23.4015 13.052 23.6145 12.7574 23.8L12.6924 23.8425C12.62 23.8875 12.5474 23.935 12.4744 23.9749C12.1719 24.1464 11.8484 24.2769 11.5119 24.3644L11.4519 24.3799C11.3084 24.4149 11.1634 24.4425 11.0169 24.4614C10.9944 24.4644 10.9719 24.4689 10.9494 24.4715C10.8004 24.4894 10.6499 24.4989 10.4999 24.4999H10.4814C10.3679 24.4999 10.2574 24.4885 10.1464 24.4784C10.092 24.4735 10.0355 24.4739 9.98145 24.4669C9.81944 24.4454 9.65843 24.4145 9.49993 24.375C7.35993 23.8215 6.07346 21.638 6.62693 19.498C6.99144 18.089 8.09147 16.9895 9.49993 16.625Z" fill="#8C919C"/>
<path d="M18.5751 18.125H18.0525C17.8559 18.1255 17.6801 18.0029 17.6127 17.8181C17.5547 17.6661 17.4925 17.5174 17.4255 17.3702C17.3424 17.1911 17.3804 16.9793 17.5205 16.8401L17.8929 16.4672C18.4459 15.9096 18.4449 15.0099 17.8905 14.4537L16.5482 13.1113C15.991 12.5575 15.0914 12.5575 14.5342 13.1113L14.1618 13.4833C14.0227 13.6229 13.8108 13.6609 13.6317 13.5783C13.4845 13.5113 13.3358 13.4491 13.1834 13.3883C12.9976 13.3214 12.8746 13.1446 12.8751 12.9475V12.425C12.8751 11.6379 12.2372 11 11.4501 11H9.55003C8.76294 11 8.12503 11.6379 8.12503 12.425V12.9475C8.12553 13.1442 8.00296 13.3199 7.81815 13.3874C7.66613 13.4453 7.51745 13.5076 7.37022 13.5745C7.19115 13.6572 6.97929 13.6192 6.84013 13.4795L6.46723 13.1071C5.91003 12.5538 5.01089 12.5538 4.45369 13.1071L3.11135 14.4537C2.55749 15.0109 2.55749 15.9106 3.11135 16.4677L3.48329 16.8401C3.6234 16.9793 3.66142 17.1911 3.57831 17.3702C3.51135 17.5174 3.44912 17.6661 3.39067 17.8186C3.32276 18.0043 3.14508 18.1268 2.94747 18.1249H2.42501C1.63791 18.1249 1 18.7629 1 19.55V21.45C1 22.2371 1.63791 22.875 2.42501 22.875H2.94753C3.14419 22.8745 3.31992 22.9971 3.38739 23.1819C3.44533 23.3339 3.50756 23.4826 3.57453 23.6298C3.65764 23.8089 3.61967 24.0207 3.47951 24.1599L3.10712 24.5328C2.55376 25.09 2.55376 25.9891 3.10712 26.5463L4.44946 27.8887C5.00666 28.4425 5.90631 28.4425 6.46345 27.8887L6.83584 27.5167C6.975 27.3771 7.18686 27.3391 7.36593 27.4217C7.51317 27.4887 7.66185 27.5509 7.81431 27.6117C8.00101 27.6777 8.12542 27.8544 8.12497 28.0525V28.575C8.12497 29.3621 8.76288 30 9.54998 30H11.45C12.2371 30 12.875 29.3621 12.875 28.575V28.0525C12.8745 27.8558 12.997 27.6801 13.1818 27.6126C13.3339 27.5547 13.4825 27.4924 13.6298 27.4255C13.8089 27.3428 14.0207 27.3808 14.1599 27.5205L14.5328 27.8929C15.0904 28.4453 15.9896 28.4444 16.5463 27.8905L17.8887 26.5482C18.4425 25.991 18.4425 25.0913 17.8887 24.5342L17.5167 24.1618C17.3766 24.0226 17.3386 23.8108 17.4217 23.6317C17.4886 23.4845 17.5509 23.3358 17.6117 23.1833C17.6786 22.9976 17.8554 22.8745 18.0525 22.875H18.575C19.3621 22.875 20 22.2371 20 21.45V19.5501C20.0001 18.7629 19.3621 18.125 18.5751 18.125ZM19.0501 21.45C19.0501 21.7122 18.8373 21.925 18.5751 21.925H18.0526C17.4622 21.9274 16.9335 22.2921 16.7226 22.8436C16.6722 22.9766 16.6176 23.1077 16.5592 23.2364C16.3151 23.7755 16.4281 24.4092 16.8442 24.8305L17.2157 25.2025C17.4014 25.3877 17.4014 25.6884 17.2162 25.8741L15.8733 27.217C15.6881 27.4022 15.3874 27.4022 15.2017 27.217L14.8293 26.845C14.4084 26.4289 13.7743 26.3154 13.2352 26.56C13.1064 26.6185 12.9753 26.6731 12.8433 26.7234C12.2923 26.9343 11.9275 27.4625 11.9251 28.0524V28.5749C11.9251 28.8371 11.7123 29.0499 11.4501 29.0499H9.55003C9.28786 29.0499 9.07505 28.8371 9.07505 28.5749V28.0524C9.07266 27.462 8.70789 26.9333 8.15642 26.7224C8.02344 26.6721 7.8923 26.6175 7.7636 26.5591C7.22449 26.3149 6.59081 26.4284 6.16949 26.8441L5.79754 27.2155C5.61229 27.4013 5.31159 27.4013 5.12589 27.216L3.78305 25.8746C3.5978 25.6893 3.5978 25.3882 3.78305 25.2029L4.155 24.8305C4.57109 24.4092 4.68414 23.7755 4.44 23.2364C4.38155 23.1077 4.32694 22.9766 4.27662 22.8445C4.06621 22.2931 3.53801 21.9273 2.94758 21.9249H2.42501C2.16283 21.9249 1.95002 21.7121 1.95002 21.4499V19.55C1.95002 19.2878 2.16283 19.075 2.42501 19.075H2.94753C3.53796 19.0726 4.06666 18.7078 4.27751 18.1563C4.32789 18.0234 4.3825 17.8922 4.44089 17.7635C4.68503 17.2244 4.57198 16.5907 4.15589 16.1694L3.78255 15.7975C3.59679 15.6122 3.59679 15.3115 3.78204 15.1258L5.12489 13.783C5.31064 13.5977 5.61084 13.5977 5.79654 13.783L6.16893 14.1549C6.58981 14.571 7.22393 14.6846 7.76304 14.4399C7.89179 14.3815 8.02288 14.3269 8.15492 14.2766C8.70689 14.0661 9.07215 13.5379 9.07499 12.9475V12.425C9.07499 12.1628 9.2878 11.95 9.54998 11.95H11.45C11.7121 11.95 11.9249 12.1628 11.9249 12.425V12.9475C11.9273 13.5379 12.2921 14.0666 12.8436 14.2775C12.9766 14.3279 13.1077 14.3825 13.2364 14.4409C13.7755 14.6855 14.4096 14.572 14.8305 14.1559L15.2025 13.7844C15.3887 13.6001 15.6884 13.6001 15.8746 13.7844L17.217 15.1268C17.4022 15.312 17.4022 15.6132 17.217 15.7984L16.845 16.1708C16.4289 16.5921 16.3159 17.2258 16.56 17.7649C16.6184 17.8937 16.6731 18.0248 16.7234 18.1568C16.9343 18.7078 17.4625 19.0726 18.0524 19.075H18.5749C18.8371 19.075 19.0499 19.2878 19.0499 19.55L19.0501 21.45Z" fill="#8C919C"/>
<path d="M14.9905 20.2985C14.9856 20.1785 14.9771 20.0591 14.9625 19.9401C14.9465 19.8121 14.9276 19.6852 14.901 19.5607C14.8835 19.4793 14.8605 19.3988 14.8385 19.3178C14.8105 19.2149 14.7791 19.1134 14.744 19.0134C14.7195 18.944 14.6941 18.875 14.6681 18.8065C14.6036 18.6465 14.5301 18.4901 14.4476 18.3387C14.4411 18.3272 14.4371 18.3147 14.4306 18.3032C14.3006 18.0717 14.1502 17.8523 13.9807 17.6479C13.9663 17.6299 13.9498 17.6129 13.9348 17.5954C13.8658 17.514 13.7948 17.435 13.7203 17.3595C13.6813 17.319 13.6403 17.281 13.5993 17.2421C13.5494 17.1955 13.4993 17.1496 13.4494 17.1056C13.3889 17.0531 13.3269 17.0021 13.2639 16.9526L13.182 16.8917C12.4086 16.3124 11.4679 15.9995 10.5016 16C10.4516 16 10.4016 16.0075 10.3516 16.0095C10.2451 16.0125 10.1382 16.0185 10.0307 16.0295C9.97427 16.0354 9.91727 16.0419 9.8608 16.05C9.69783 16.0715 9.53639 16.1015 9.37641 16.1405C6.9695 16.7622 5.52236 19.2174 6.14418 21.6246C6.55406 23.2105 7.79324 24.4486 9.37986 24.857C9.38789 24.857 9.39638 24.8595 9.40488 24.8615C9.57734 24.9045 9.75231 24.938 9.92875 24.9615C10.0452 24.9759 10.1617 24.979 10.2786 24.9845C10.3566 24.9885 10.4286 25 10.5101 25C10.6526 25 10.8005 24.9905 10.9515 24.9755C10.9675 24.9755 10.9835 24.971 11.0015 24.969C11.123 24.9555 11.2459 24.9375 11.3714 24.9125C11.4214 24.9031 11.4679 24.8906 11.5158 24.8796C11.6038 24.8591 11.6913 24.8376 11.7813 24.8111C11.8513 24.7901 11.9192 24.7656 11.9877 24.7416C12.0562 24.7176 12.1272 24.6917 12.1982 24.6647C12.2692 24.6377 12.3286 24.6067 12.3931 24.5767C12.4771 24.5382 12.5606 24.5002 12.6431 24.4552H12.6461C13.1125 24.2053 13.5433 23.8944 13.9273 23.53C14.0307 23.4331 14.1212 23.3231 14.1952 23.2021C14.5856 22.5769 14.8416 21.8771 14.948 21.1479C14.962 21.0514 14.9745 20.9549 14.982 20.8564C14.989 20.766 14.994 20.676 14.996 20.586C14.996 20.5575 15 20.5305 15 20.502C15.0006 20.4314 14.9935 20.3665 14.9905 20.2985ZM9.62338 17.1096C9.9103 17.0371 10.2057 17.0001 10.5017 16.9996C10.6447 17.0006 10.7871 17.0101 10.9291 17.0286C10.9671 17.0331 11.0046 17.0401 11.0421 17.0456C11.15 17.0626 11.257 17.0841 11.3625 17.1111C11.397 17.1201 11.4315 17.1281 11.4655 17.1376C11.7314 17.2141 11.9873 17.322 12.2278 17.4584C12.2662 17.4809 12.3037 17.5044 12.3418 17.5279C12.4207 17.5779 12.4972 17.6279 12.5727 17.6848C12.6132 17.7143 12.6542 17.7433 12.6932 17.7748C12.7912 17.8533 12.8851 17.9367 12.9746 18.0247C13.0101 18.0607 13.0426 18.1002 13.077 18.1377C13.1345 18.2002 13.1905 18.2642 13.244 18.3316C13.281 18.3781 13.3165 18.4261 13.3515 18.4746C13.4015 18.5466 13.4515 18.6216 13.4965 18.6975C13.5215 18.739 13.5464 18.7795 13.572 18.822C13.6365 18.9405 13.6939 19.0629 13.7439 19.1884C13.7639 19.2384 13.7809 19.2884 13.7989 19.3383C13.8314 19.4303 13.8594 19.5233 13.8839 19.6173C13.8964 19.6672 13.9104 19.7117 13.9209 19.7602C13.9499 19.8952 13.9714 20.0321 13.9844 20.1696C13.9874 20.2061 13.9874 20.2431 13.9899 20.2796C13.9969 20.3945 13.9989 20.51 13.9944 20.626C13.9944 20.6674 13.9909 20.709 13.9884 20.7499C13.9794 20.8709 13.9639 20.9918 13.9434 21.1133C13.7565 22.1524 13.1111 23.0521 12.1869 23.5624C12.1249 23.5949 12.0639 23.6254 12.0029 23.6534L11.9615 23.6734C11.671 23.8053 11.3646 23.8978 11.0497 23.9492C11.0277 23.9528 11.0052 23.9567 10.9827 23.9597C10.9202 23.9688 10.8588 23.9763 10.7978 23.9817C10.7173 23.9887 10.6363 23.9927 10.5539 23.9942C10.5189 23.9942 10.4844 23.9942 10.4494 23.9942C10.331 23.9927 10.213 23.9857 10.0955 23.9722L10.0355 23.9652C9.898 23.9473 9.76157 23.9218 9.62707 23.8883C7.75505 23.409 6.62582 21.5031 7.1047 19.6313C7.42115 18.3942 8.38671 17.4274 9.62338 17.1096Z" fill="#8C919C"/>
<path d="M28.5334 11.2664H26.9959C26.7911 11.2683 26.6072 11.1392 26.5403 10.9456C26.3887 10.4915 26.2054 10.0485 25.9912 9.6203C25.9003 9.43548 25.9384 9.21308 26.0851 9.06837L27.1753 7.97671C27.7472 7.40421 27.7472 6.47588 27.1753 5.90339L25.0965 3.82812C24.524 3.25613 23.5957 3.25613 23.0232 3.82812L21.9336 4.91737C21.7894 5.06403 21.5669 5.10219 21.3821 5.01173C20.9538 4.7966 20.5109 4.6123 20.0563 4.45979C19.8617 4.39328 19.7317 4.20949 19.7336 4.00417V2.46662C19.7336 1.65654 19.0771 1 18.267 1H15.3337C14.5237 1 13.8671 1.65654 13.8671 2.46662V4.00411C13.8691 4.20892 13.74 4.39277 13.5464 4.45974C13.0923 4.61224 12.6493 4.79654 12.2211 5.01121C12.0362 5.10213 11.8133 5.06449 11.6691 4.91737L10.5775 3.8272C10.004 3.25671 9.07761 3.25671 8.50414 3.8272L6.42937 5.90195C5.85688 6.47445 5.85688 7.40329 6.42937 7.97573L8.03241 9.58168C8.22651 9.76942 8.53593 9.7645 8.72367 9.57091C8.907 9.38174 8.90751 9.08154 8.72464 8.8914L7.12064 7.28596C6.92998 7.09479 6.92998 6.78582 7.12064 6.5947L9.1954 4.51995C9.38606 4.32929 9.696 4.32929 9.88666 4.51995L10.9788 5.61012C11.4207 6.05452 12.0978 6.16595 12.6586 5.88585C13.0457 5.69176 13.4461 5.52556 13.8568 5.38772C14.4493 5.18726 14.8473 4.62995 14.8448 4.00423V2.46662C14.8448 2.19679 15.0638 1.97777 15.3337 1.97777H18.2669C18.5368 1.97777 18.7558 2.19679 18.7558 2.46662V4.00411C18.7533 4.62989 19.1513 5.18669 19.7438 5.38715C20.1545 5.52499 20.5553 5.6917 20.9426 5.8858C21.5033 6.16446 22.1794 6.05297 22.6218 5.6096L23.714 4.51989C23.9046 4.32923 24.2146 4.32923 24.4052 4.51989L26.48 6.59516C26.6706 6.78582 26.6706 7.0953 26.48 7.28596L25.3898 8.37808C24.9459 8.82001 24.8344 9.49712 25.1141 10.0579C25.3082 10.445 25.4744 10.8454 25.6122 11.2561C25.8127 11.8486 26.37 12.247 26.9957 12.2441H28.5334C28.8032 12.2441 29.0222 12.4631 29.0222 12.733V15.6662C29.0222 15.9361 28.8032 16.1551 28.5334 16.1551H26.9959C26.3701 16.1526 25.8133 16.5505 25.6128 17.1431C25.475 17.5537 25.3083 17.9546 25.1142 18.3418C24.835 18.9026 24.9465 19.5792 25.3904 20.0211L26.4806 21.1132C26.6712 21.3039 26.6712 21.6138 26.4806 21.8045L24.4048 23.8792C24.2141 24.0699 23.9046 24.0699 23.714 23.8792L22.1075 22.2762C21.9198 22.0821 21.6103 22.0772 21.4162 22.265C21.2221 22.4527 21.2173 22.7621 21.405 22.9562C21.4089 22.9601 21.4128 22.9641 21.4172 22.968L23.0232 24.571C23.5957 25.143 24.524 25.143 25.0965 24.571L27.1712 22.4967C27.7437 21.9238 27.7437 20.9959 27.1712 20.4229L26.0826 19.3328C25.936 19.1886 25.8978 18.9661 25.9883 18.7813C26.2034 18.3531 26.3877 17.9101 26.5402 17.4555C26.6067 17.2609 26.7905 17.1309 26.9958 17.1328H28.5334C29.3435 17.1328 30 16.4763 30 15.6662V12.733C30 11.9229 29.3435 11.2664 28.5334 11.2664Z" fill="#8C919C" stroke="#8C919C" stroke-width="0.5"/>
<path d="M21.1386 9.85937C18.6514 7.38021 14.6248 7.38021 12.1375 9.85937C11.9495 10.0536 11.9549 10.3631 12.1498 10.5509C12.3397 10.7338 12.6403 10.7338 12.8298 10.5509C14.919 8.43612 18.3292 8.41314 20.4463 10.5001C22.5634 12.5871 22.5864 15.9935 20.4972 18.1084C20.48 18.1255 20.4634 18.1426 20.4463 18.1592C20.2519 18.3471 20.2465 18.6566 20.4345 18.8508C20.6225 19.045 20.9324 19.0504 21.1268 18.8626C21.1307 18.8587 21.1347 18.8547 21.1386 18.8508C23.6205 16.3662 23.6205 12.3439 21.1386 9.85937Z" fill="#8C919C" stroke="#8C919C" stroke-width="0.5"/>
</g>
<defs>
<clipPath id="clip0">
<rect width="32" height="32" fill="white"/>
</clipPath>
</defs>
</svg>
