<svg width="32" height="32" viewBox="0 0 32 32" fill="none" xmlns="http://www.w3.org/2000/svg">
<path d="M2.56764 22.5H3.11765C3.53214 22.5 3.90262 22.757 4.04864 23.145C4.10565 23.295 4.16711 23.4425 4.23315 23.5875C4.40617 23.9655 4.32666 24.4109 4.03317 24.7055L3.64264 25.1C3.25318 25.4905 3.25318 26.1225 3.64264 26.513L5.05562 27.9259C5.44614 28.3154 6.07813 28.3154 6.46859 27.9259L6.86111 27.5349C7.1556 27.2414 7.60108 27.1619 7.97912 27.335C8.12414 27.4015 8.27162 27.463 8.42162 27.5195C8.80962 27.665 9.06714 28.0354 9.06761 28.45V29C9.06761 29.5525 9.51508 30 10.0676 30H12.0676C12.6201 30 13.0676 29.5525 13.0676 29V28.45C13.0676 28.0355 13.3246 27.665 13.7126 27.519C13.8626 27.462 14.0101 27.4005 14.1551 27.3345C14.5331 27.1615 14.9785 27.241 15.2731 27.5345L15.6656 27.9255C16.0561 28.3149 16.6881 28.3149 17.0786 27.9255L18.4916 26.5125C18.881 26.122 18.881 25.49 18.4916 25.0995L18.1006 24.707C17.8071 24.4125 17.7276 23.967 17.9006 23.589C17.9671 23.444 18.0286 23.2965 18.0851 23.1465C18.2306 22.7575 18.6021 22.5 19.0176 22.5H19.5676C20.1201 22.5 20.5676 22.0525 20.5676 21.5V19.5C20.5676 18.9475 20.1202 18.5 19.5676 18.5H19.0176C18.6031 18.5 18.2326 18.243 18.0866 17.855C18.0296 17.705 17.9681 17.5575 17.9021 17.4125C17.7286 17.0345 17.8086 16.5891 18.1021 16.2945L18.4931 15.902C18.8825 15.5115 18.8825 14.8795 18.4931 14.489L17.08 13.0761C16.6895 12.6866 16.0575 12.6866 15.667 13.0761L15.2745 13.4671C14.98 13.7605 14.5345 13.8401 14.1565 13.667C14.0115 13.6005 13.864 13.539 13.714 13.4825C13.325 13.337 13.0675 12.9656 13.0675 12.55V12C13.0675 11.4475 12.62 11 12.0675 11H10.0676C9.51508 11 9.06755 11.4475 9.06755 12V12.55C9.06755 12.9645 8.81056 13.335 8.42256 13.481C8.27256 13.538 8.12508 13.5995 7.98006 13.6655C7.60208 13.8385 7.15659 13.759 6.86205 13.4655L6.46754 13.075C6.07701 12.6855 5.44503 12.6855 5.05456 13.075L3.64358 14.489C3.25411 14.8795 3.25411 15.5115 3.64358 15.9019L4.03457 16.2945C4.32807 16.5889 4.40805 17.0344 4.23455 17.4125C4.16805 17.5575 4.10653 17.705 4.05004 17.855C3.90403 18.2434 3.53255 18.5005 3.11753 18.5H2.56764C2.01516 18.5 1.56763 18.9474 1.56763 19.5V21.5C1.56763 22.0524 2.01516 22.5 2.56764 22.5ZM10.0676 16.625C10.3946 16.5425 10.7305 16.5005 11.0676 16.5001C11.2331 16.5011 11.3986 16.5125 11.5631 16.534C11.6106 16.5396 11.6571 16.5481 11.7036 16.5556C11.8251 16.5745 11.9441 16.5996 12.0616 16.6296C12.1046 16.6406 12.1481 16.6501 12.1906 16.6625C12.3426 16.706 12.4916 16.7585 12.6371 16.82C12.6546 16.8275 12.6706 16.837 12.6871 16.8445C12.8141 16.901 12.9381 16.9645 13.0586 17.034C13.0991 17.0575 13.1385 17.084 13.1786 17.1065C13.2786 17.17 13.3785 17.238 13.4736 17.3095C13.5051 17.3335 13.5381 17.356 13.5691 17.381C13.6896 17.478 13.8051 17.5815 13.9141 17.691C13.9346 17.712 13.9526 17.7345 13.9726 17.756C14.0606 17.8485 14.1441 17.9455 14.2226 18.0465C14.2516 18.0835 14.2796 18.1215 14.3076 18.16C14.3791 18.26 14.4466 18.36 14.5076 18.468C14.5256 18.4986 14.5456 18.528 14.5631 18.559C14.6391 18.6955 14.7066 18.837 14.7661 18.9815C14.7796 19.015 14.7906 19.0496 14.8036 19.0816C14.8476 19.198 14.8866 19.3166 14.9196 19.4376C14.9326 19.4846 14.9446 19.5315 14.9561 19.5791C14.9866 19.7096 15.0106 19.8416 15.0281 19.9746C15.0321 20.004 15.0381 20.0326 15.0416 20.062C15.0581 20.2075 15.0671 20.3535 15.0676 20.5C15.0676 20.52 15.0676 20.5395 15.0646 20.5595C15.0646 20.602 15.0601 20.6455 15.0581 20.6885C15.0521 20.817 15.0406 20.944 15.0226 21.0695C15.0146 21.1285 15.0061 21.187 14.9956 21.246C14.9786 21.3354 14.9566 21.4225 14.9341 21.51C14.8106 22.015 14.6081 22.4975 14.3341 22.9395C14.2831 23.022 14.2211 23.098 14.1506 23.1645C13.8961 23.4015 13.6196 23.6145 13.325 23.8L13.2601 23.8425C13.1876 23.8875 13.115 23.935 13.042 23.9749C12.7395 24.1464 12.416 24.2769 12.0795 24.3644L12.0195 24.3799C11.876 24.4149 11.731 24.4425 11.5845 24.4614C11.562 24.4644 11.5395 24.4689 11.517 24.4715C11.368 24.4894 11.2176 24.4989 11.0676 24.4999H11.0491C10.9356 24.4999 10.8251 24.4885 10.7141 24.4784C10.6596 24.4735 10.6031 24.4739 10.5491 24.4669C10.3871 24.4454 10.2261 24.4145 10.0676 24.375C7.92756 23.8215 6.64109 21.638 7.19456 19.498C7.55907 18.089 8.6591 16.9895 10.0676 16.625Z" fill="black"/>
<path d="M19.1427 18.125H18.6202C18.4235 18.1255 18.2478 18.0029 18.1803 17.8181C18.1224 17.6661 18.0601 17.5174 17.9932 17.3702C17.91 17.1911 17.948 16.9793 18.0882 16.8401L18.4606 16.4672C19.0135 15.9096 19.0125 15.0099 18.4582 14.4537L17.1158 13.1113C16.5586 12.5575 15.659 12.5575 15.1018 13.1113L14.7294 13.4833C14.5903 13.6229 14.3784 13.6609 14.1994 13.5783C14.0521 13.5113 13.9034 13.4491 13.751 13.3883C13.5652 13.3214 13.4422 13.1446 13.4427 12.9475V12.425C13.4427 11.6379 12.8048 11 12.0177 11H10.1177C9.33057 11 8.69265 11.6379 8.69265 12.425V12.9475C8.69316 13.1442 8.57058 13.3199 8.38578 13.3874C8.23376 13.4453 8.08508 13.5076 7.93785 13.5745C7.75878 13.6572 7.54692 13.6192 7.40776 13.4795L7.03486 13.1071C6.47766 12.5538 5.57852 12.5538 5.02132 13.1071L3.67897 14.4537C3.12511 15.0109 3.12511 15.9106 3.67897 16.4677L4.05092 16.8401C4.19103 16.9793 4.22905 17.1911 4.14594 17.3702C4.07898 17.5174 4.01674 17.6661 3.9583 17.8186C3.89039 18.0043 3.71271 18.1268 3.5151 18.1249H2.99263C2.20554 18.1249 1.56763 18.7629 1.56763 19.55V21.45C1.56763 22.2371 2.20554 22.875 2.99263 22.875H3.51515C3.71181 22.8745 3.88755 22.9971 3.95501 23.1819C4.01296 23.3339 4.07519 23.4826 4.14216 23.6298C4.22526 23.8089 4.1873 24.0207 4.04714 24.1599L3.67474 24.5328C3.12138 25.09 3.12138 25.9891 3.67474 26.5463L5.01709 27.8887C5.57429 28.4425 6.47393 28.4425 7.03108 27.8887L7.40347 27.5167C7.54263 27.3771 7.75449 27.3391 7.93356 27.4217C8.08079 27.4887 8.22947 27.5509 8.38194 27.6117C8.56863 27.6777 8.69304 27.8544 8.6926 28.0525V28.575C8.6926 29.3621 9.33051 30 10.1176 30H12.0176C12.8047 30 13.4426 29.3621 13.4426 28.575V28.0525C13.4421 27.8558 13.5647 27.6801 13.7495 27.6126C13.9015 27.5547 14.0502 27.4924 14.1974 27.4255C14.3765 27.3428 14.5883 27.3808 14.7275 27.5205L15.1004 27.8929C15.658 28.4453 16.5572 28.4444 17.1139 27.8905L18.4563 26.5482C19.0101 25.991 19.0101 25.0913 18.4563 24.5342L18.0843 24.1618C17.9442 24.0226 17.9062 23.8108 17.9893 23.6317C18.0563 23.4845 18.1185 23.3358 18.1793 23.1833C18.2463 22.9976 18.423 22.8745 18.6201 22.875H19.1426C19.9297 22.875 20.5676 22.2371 20.5676 21.45V19.5501C20.5677 18.7629 19.9298 18.125 19.1427 18.125ZM19.6177 21.45C19.6177 21.7122 19.4049 21.925 19.1427 21.925H18.6202C18.0298 21.9274 17.5011 22.2921 17.2902 22.8436C17.2398 22.9766 17.1852 23.1077 17.1269 23.2364C16.8827 23.7755 16.9958 24.4092 17.4119 24.8305L17.7833 25.2025C17.9691 25.3877 17.9691 25.6884 17.7838 25.8741L16.441 27.217C16.2557 27.4022 15.955 27.4022 15.7693 27.217L15.3969 26.845C14.976 26.4289 14.3419 26.3154 13.8028 26.56C13.6741 26.6185 13.543 26.6731 13.4109 26.7234C12.8599 26.9343 12.4951 27.4625 12.4927 28.0524V28.5749C12.4927 28.8371 12.2799 29.0499 12.0178 29.0499H10.1177C9.85548 29.0499 9.64268 28.8371 9.64268 28.5749V28.0524C9.64028 27.462 9.27552 26.9333 8.72405 26.7224C8.59107 26.6721 8.45992 26.6175 8.33123 26.5591C7.79212 26.3149 7.15844 26.4284 6.73711 26.8441L6.36516 27.2155C6.17991 27.4013 5.87922 27.4013 5.69352 27.216L4.35067 25.8746C4.16542 25.6893 4.16542 25.3882 4.35067 25.2029L4.72262 24.8305C5.13871 24.4092 5.25177 23.7755 5.00762 23.2364C4.94918 23.1077 4.89457 22.9766 4.84425 22.8445C4.63384 22.2931 4.10564 21.9273 3.51521 21.9249H2.99263C2.73045 21.9249 2.51765 21.7121 2.51765 21.4499V19.55C2.51765 19.2878 2.73045 19.075 2.99263 19.075H3.51515C4.10558 19.0726 4.63428 18.7078 4.84514 18.1563C4.89552 18.0234 4.95012 17.8922 5.00851 17.7635C5.25266 17.2244 5.1396 16.5907 4.72351 16.1694L4.35017 15.7975C4.16442 15.6122 4.16442 15.3115 4.34967 15.1258L5.69252 13.783C5.87827 13.5977 6.17847 13.5977 6.36416 13.783L6.73656 14.1549C7.15743 14.571 7.79156 14.6846 8.33067 14.4399C8.45942 14.3815 8.59051 14.3269 8.72255 14.2766C9.27451 14.0661 9.63978 13.5379 9.64262 12.9475V12.425C9.64262 12.1628 9.85543 11.95 10.1176 11.95H12.0176C12.2798 11.95 12.4926 12.1628 12.4926 12.425V12.9475C12.495 13.5379 12.8597 14.0666 13.4112 14.2775C13.5442 14.3279 13.6753 14.3825 13.804 14.4409C14.3431 14.6855 14.9773 14.572 15.3981 14.1559L15.7701 13.7844C15.9563 13.6001 16.256 13.6001 16.4422 13.7844L17.7846 15.1268C17.9698 15.312 17.9698 15.6132 17.7846 15.7984L17.4126 16.1708C16.9965 16.5921 16.8835 17.2258 17.1276 17.7649C17.1861 17.8937 17.2407 18.0248 17.291 18.1568C17.5019 18.7078 18.0301 19.0726 18.62 19.075H19.1426C19.4047 19.075 19.6175 19.2878 19.6175 19.55L19.6177 21.45Z" fill="black"/>
<path d="M15.5582 20.2985C15.5532 20.1785 15.5447 20.0591 15.5302 19.9401C15.5142 19.8121 15.4952 19.6852 15.4687 19.5607C15.4511 19.4793 15.4282 19.3988 15.4061 19.3178C15.3781 19.2149 15.3467 19.1134 15.3117 19.0134C15.2872 18.944 15.2617 18.875 15.2357 18.8065C15.1712 18.6465 15.0977 18.4901 15.0152 18.3387C15.0087 18.3272 15.0048 18.3147 14.9983 18.3032C14.8683 18.0717 14.7178 17.8523 14.5484 17.6479C14.5339 17.6299 14.5174 17.6129 14.5024 17.5954C14.4334 17.514 14.3624 17.435 14.2879 17.3595C14.2489 17.319 14.208 17.281 14.167 17.2421C14.117 17.1955 14.067 17.1496 14.017 17.1056C13.9565 17.0531 13.8945 17.0021 13.8315 16.9526L13.7496 16.8917C12.9763 16.3124 12.0355 15.9995 11.0692 16C11.0193 16 10.9692 16.0075 10.9193 16.0095C10.8128 16.0125 10.7058 16.0185 10.5984 16.0295C10.5419 16.0354 10.4849 16.0419 10.4284 16.05C10.2655 16.0715 10.104 16.1015 9.94403 16.1405C7.53713 16.7622 6.08998 19.2174 6.7118 21.6246C7.12168 23.2105 8.36087 24.4486 9.94749 24.857C9.95552 24.857 9.96401 24.8595 9.9725 24.8615C10.145 24.9045 10.3199 24.938 10.4964 24.9615C10.6128 24.9759 10.7293 24.979 10.8463 24.9845C10.9242 24.9885 10.9962 25 11.0777 25C11.2202 25 11.3682 24.9905 11.5191 24.9755C11.5351 24.9755 11.5511 24.971 11.5691 24.969C11.6906 24.9555 11.8135 24.9375 11.939 24.9125C11.989 24.9031 12.0355 24.8906 12.0835 24.8796C12.1715 24.8591 12.2589 24.8376 12.3489 24.8111C12.4189 24.7901 12.4868 24.7656 12.5553 24.7416C12.6238 24.7176 12.6948 24.6917 12.7658 24.6647C12.8368 24.6377 12.8963 24.6067 12.9608 24.5767C13.0448 24.5382 13.1282 24.5002 13.2107 24.4552H13.2137C13.6801 24.2053 14.111 23.8944 14.4949 23.53C14.5983 23.4331 14.6888 23.3231 14.7628 23.2021C15.1533 22.5769 15.4092 21.8771 15.5156 21.1479C15.5296 21.0514 15.5421 20.9549 15.5496 20.8564C15.5566 20.766 15.5616 20.676 15.5636 20.586C15.5636 20.5575 15.5676 20.5305 15.5676 20.502C15.5682 20.4314 15.5611 20.3665 15.5582 20.2985ZM10.191 17.1096C10.4779 17.0371 10.7733 17.0001 11.0693 16.9996C11.2123 17.0006 11.3547 17.0101 11.4967 17.0286C11.5347 17.0331 11.5722 17.0401 11.6097 17.0456C11.7176 17.0626 11.8246 17.0841 11.9301 17.1111C11.9646 17.1201 11.9991 17.1281 12.0331 17.1376C12.299 17.2141 12.555 17.322 12.7954 17.4584C12.8339 17.4809 12.8714 17.5044 12.9094 17.5279C12.9883 17.5779 13.0648 17.6279 13.1403 17.6848C13.1808 17.7143 13.2218 17.7433 13.2608 17.7748C13.3588 17.8533 13.4528 17.9367 13.5422 18.0247C13.5777 18.0607 13.6102 18.1002 13.6447 18.1377C13.7021 18.2002 13.7581 18.2642 13.8116 18.3316C13.8486 18.3781 13.8841 18.4261 13.9191 18.4746C13.9691 18.5466 14.0191 18.6216 14.0641 18.6975C14.0891 18.739 14.1141 18.7795 14.1396 18.822C14.2041 18.9405 14.2616 19.0629 14.3115 19.1884C14.3315 19.2384 14.3485 19.2884 14.3665 19.3383C14.3991 19.4303 14.4271 19.5233 14.4515 19.6173C14.464 19.6672 14.478 19.7117 14.4885 19.7602C14.5175 19.8952 14.539 20.0321 14.552 20.1696C14.555 20.2061 14.555 20.2431 14.5575 20.2796C14.5645 20.3945 14.5665 20.51 14.562 20.626C14.562 20.6674 14.5585 20.709 14.556 20.7499C14.547 20.8709 14.5316 20.9918 14.5111 21.1133C14.3241 22.1524 13.6788 23.0521 12.7545 23.5624C12.6925 23.5949 12.6315 23.6254 12.5706 23.6534L12.5291 23.6734C12.2386 23.8053 11.9322 23.8978 11.6173 23.9492C11.5953 23.9528 11.5728 23.9567 11.5503 23.9597C11.4878 23.9688 11.4264 23.9763 11.3654 23.9817C11.2849 23.9887 11.204 23.9927 11.1215 23.9942C11.0865 23.9942 11.052 23.9942 11.017 23.9942C10.8986 23.9927 10.7806 23.9857 10.6631 23.9722L10.6031 23.9652C10.4656 23.9473 10.3292 23.9218 10.1947 23.8883C8.32268 23.409 7.19344 21.5031 7.67233 19.6313C7.98877 18.3942 8.95434 17.4274 10.191 17.1096Z" fill="black"/>
<path d="M29.101 11.2664H27.5635C27.3587 11.2683 27.1749 11.1392 27.1079 10.9456C26.9563 10.4915 26.773 10.0485 26.5589 9.6203C26.468 9.43548 26.506 9.21308 26.6527 9.06837L27.7429 7.97671C28.3149 7.40421 28.3149 6.47588 27.7429 5.90339L25.6642 3.82812C25.0917 3.25613 24.1633 3.25613 23.5908 3.82812L22.5012 4.91737C22.357 5.06403 22.1345 5.10219 21.9497 5.01173C21.5215 4.7966 21.0786 4.6123 20.6239 4.45979C20.4293 4.39328 20.2993 4.20949 20.3012 4.00417V2.46662C20.3012 1.65654 19.6447 1 18.8346 1H15.9014C15.0913 1 14.4347 1.65654 14.4347 2.46662V4.00411C14.4367 4.20892 14.3076 4.39277 14.114 4.45974C13.6599 4.61224 13.2169 4.79654 12.7887 5.01121C12.6039 5.10213 12.381 5.06449 12.2368 4.91737L11.1451 3.8272C10.5716 3.25671 9.64524 3.25671 9.07176 3.8272L6.997 5.90195C6.4245 6.47445 6.4245 7.40329 6.997 7.97573L8.60003 9.58168C8.79413 9.76942 9.10356 9.7645 9.2913 9.57091C9.47463 9.38174 9.47514 9.08154 9.29227 8.8914L7.68826 7.28596C7.4976 7.09479 7.4976 6.78582 7.68826 6.5947L9.76302 4.51995C9.95369 4.32929 10.2636 4.32929 10.4543 4.51995L11.5464 5.61012C11.9883 6.05452 12.6655 6.16595 13.2262 5.88585C13.6134 5.69176 14.0138 5.52556 14.4244 5.38772C15.0169 5.18726 15.4149 4.62995 15.4125 4.00423V2.46662C15.4125 2.19679 15.6315 1.97777 15.9013 1.97777H18.8346C19.1044 1.97777 19.3234 2.19679 19.3234 2.46662V4.00411C19.321 4.62989 19.7189 5.18669 20.3114 5.38715C20.7221 5.52499 21.123 5.6917 21.5102 5.8858C22.0709 6.16446 22.747 6.05297 23.1895 5.6096L24.2816 4.51989C24.4722 4.32923 24.7822 4.32923 24.9728 4.51989L27.0476 6.59516C27.2383 6.78582 27.2383 7.0953 27.0476 7.28596L25.9574 8.37808C25.5136 8.82001 25.4021 9.49712 25.6817 10.0579C25.8758 10.445 26.042 10.8454 26.1798 11.2561C26.3803 11.8486 26.9376 12.247 27.5633 12.2441H29.101C29.3708 12.2441 29.5899 12.4631 29.5899 12.733V15.6662C29.5899 15.9361 29.3708 16.1551 29.101 16.1551H27.5635C26.9377 16.1526 26.3809 16.5505 26.1805 17.1431C26.0426 17.5537 25.8759 17.9546 25.6818 18.3418C25.4026 18.9026 25.5141 19.5792 25.958 20.0211L27.0482 21.1132C27.2388 21.3039 27.2388 21.6138 27.0482 21.8045L24.9724 23.8792C24.7817 24.0699 24.4722 24.0699 24.2816 23.8792L22.6751 22.2762C22.4874 22.0821 22.178 22.0772 21.9839 22.265C21.7898 22.4527 21.7849 22.7621 21.9726 22.9562C21.9765 22.9601 21.9805 22.9641 21.9848 22.968L23.5908 24.571C24.1633 25.143 25.0916 25.143 25.6641 24.571L27.7389 22.4967C28.3114 21.9238 28.3114 20.9959 27.7389 20.4229L26.6502 19.3328C26.5036 19.1886 26.4654 18.9661 26.5559 18.7813C26.771 18.3531 26.9553 17.9101 27.1078 17.4555C27.1743 17.2609 27.3581 17.1309 27.5635 17.1328H29.101C29.9111 17.1328 30.5676 16.4763 30.5676 15.6662V12.733C30.5676 11.9229 29.9111 11.2664 29.101 11.2664Z" fill="black" stroke="black" stroke-width="0.5"/>
<path d="M21.7062 9.85937C19.219 7.38021 15.1924 7.38021 12.7052 9.85937C12.5171 10.0536 12.5225 10.3631 12.7174 10.5509C12.9074 10.7338 13.208 10.7338 13.3975 10.5509C15.4867 8.43612 18.8968 8.41314 21.0139 10.5001C23.131 12.5871 23.154 15.9935 21.0648 18.1084C21.0477 18.1255 21.031 18.1426 21.0139 18.1592C20.8195 18.3471 20.8141 18.6566 21.0022 18.8508C21.1902 19.045 21.5001 19.0504 21.6945 18.8626C21.6984 18.8587 21.7023 18.8547 21.7062 18.8508C24.1881 16.3662 24.1881 12.3439 21.7062 9.85937Z" fill="black" stroke="black" stroke-width="0.5"/>
</svg>
