<svg width="30" height="28" viewBox="0 0 30 28" fill="none" xmlns="http://www.w3.org/2000/svg">
<path d="M26.7977 8.79698C26.831 8.64839 26.849 8.49625 26.849 8.34044V4.76596C26.849 1.67038 20.0962 0 13.7426 0C7.38893 0 0.63623 1.67038 0.63623 4.76596C0.63623 4.89951 0.649629 5.03016 0.674184 5.15834C0.650941 5.22205 0.63623 5.28998 0.63623 5.36173V8.34044C0.63623 9.33073 1.32814 10.1749 2.47614 10.8655C2.44179 11.0155 2.42347 11.1671 2.42347 11.3191C2.42347 11.4527 2.43687 11.5833 2.46143 11.7115C2.43813 11.7753 2.42347 11.8432 2.42347 11.9149V14.8936C2.42347 15.1671 2.47723 15.4293 2.57769 15.6803C1.47836 16.495 1.232 17.3104 1.232 17.8724C1.232 18.0059 1.24539 18.1366 1.26995 18.2648C1.24665 18.3285 1.232 18.3963 1.232 18.4681V21.4468C1.232 24.5424 7.98475 26.2128 14.3384 26.2128C20.6921 26.2128 27.4448 24.5424 27.4448 21.4468V17.8724C27.4448 17.6079 27.3919 17.3467 27.2894 17.0917C28.1392 16.467 28.6362 15.7328 28.6362 14.8936V11.3192C28.6362 10.6631 28.3074 9.71004 26.7977 8.79698ZM5.08468 2.38235C7.38839 1.61448 10.4632 1.19153 13.7426 1.19153C17.0219 1.19153 20.0967 1.61448 22.4005 2.38235C24.4399 3.06217 25.6575 3.95325 25.6575 4.76596C25.6575 5.57867 24.4399 6.46975 22.4005 7.14957C20.0966 7.91744 17.0219 8.34039 13.7426 8.34039C10.4632 8.34039 7.38833 7.91744 5.08468 7.14957C3.04521 6.46975 1.82771 5.57867 1.82771 4.76596C1.82771 3.95325 3.04527 3.06217 5.08468 2.38235ZM22.9963 20.256C20.6924 21.0238 17.6177 21.4468 14.3384 21.4468C11.0591 21.4468 7.98415 21.0238 5.6805 20.256C3.64104 19.5762 2.42353 18.6851 2.42353 17.8724C2.42353 17.406 2.82729 16.9796 3.2568 16.6578C5.25207 18.6186 10.5149 19.6596 15.5299 19.6596C19.5404 19.6596 23.7092 18.9938 26.239 17.7244C26.2478 17.7739 26.2533 17.8231 26.2533 17.8724C26.2533 18.6851 25.0357 19.5762 22.9963 20.256ZM24.1878 13.7027C21.8841 14.4706 18.8092 14.8935 15.5299 14.8935C12.2505 14.8935 9.17563 14.4706 6.87197 13.7027C4.93757 13.058 3.74467 12.2231 3.62671 11.4454C6.18493 12.5363 10.0315 13.1064 13.7426 13.1064C18.9653 13.1064 24.4566 11.9775 26.2464 9.85644C27.0221 10.3382 27.4448 10.8505 27.4448 11.3191C27.4448 12.1318 26.2272 13.0229 24.1878 13.7027Z" fill="black"/>
</svg>
