<svg width="32" height="32" viewBox="0 0 32 32" fill="none" xmlns="http://www.w3.org/2000/svg">
<path d="M27.7979 10.797C27.8312 10.6484 27.8491 10.4963 27.8491 10.3404V6.76596C27.8491 3.67038 21.0964 2 14.7427 2C8.38906 2 1.63635 3.67038 1.63635 6.76596C1.63635 6.89951 1.64975 7.03016 1.67431 7.15834C1.65106 7.22205 1.63635 7.28998 1.63635 7.36173V10.3404C1.63635 11.3307 2.32826 12.1749 3.47626 12.8655C3.44192 13.0155 3.42359 13.1671 3.42359 13.3191C3.42359 13.4527 3.43699 13.5833 3.46155 13.7115C3.43825 13.7753 3.42359 13.8432 3.42359 13.9149V16.8936C3.42359 17.1671 3.47735 17.4293 3.57781 17.6803C2.47849 18.495 2.23212 19.3104 2.23212 19.8724C2.23212 20.0059 2.24552 20.1366 2.27007 20.2648C2.24677 20.3285 2.23212 20.3963 2.23212 20.4681V23.4468C2.23212 26.5424 8.98488 28.2128 15.3385 28.2128C21.6922 28.2128 28.4449 26.5424 28.4449 23.4468V19.8724C28.4449 19.6079 28.392 19.3467 28.2895 19.0917C29.1394 18.467 29.6364 17.7328 29.6364 16.8936V13.3192C29.6364 12.6631 29.3075 11.71 27.7979 10.797ZM6.0848 4.38235C8.38851 3.61448 11.4634 3.19153 14.7427 3.19153C18.022 3.19153 21.0968 3.61448 23.4006 4.38235C25.4401 5.06217 26.6576 5.95325 26.6576 6.76596C26.6576 7.57867 25.4401 8.46975 23.4006 9.14957C21.0967 9.91744 18.022 10.3404 14.7427 10.3404C11.4634 10.3404 8.38845 9.91744 6.0848 9.14957C4.04534 8.46975 2.82783 7.57867 2.82783 6.76596C2.82783 5.95325 4.04539 5.06217 6.0848 4.38235ZM23.9964 22.256C21.6926 23.0238 18.6179 23.4468 15.3385 23.4468C12.0592 23.4468 8.98427 23.0238 6.68062 22.256C4.64116 21.5762 3.42365 20.6851 3.42365 19.8724C3.42365 19.406 3.82741 18.9796 4.25692 18.6578C6.2522 20.6186 11.515 21.6596 16.5301 21.6596C20.5405 21.6596 24.7093 20.9938 27.2391 19.7244C27.2479 19.7739 27.2535 19.8231 27.2535 19.8724C27.2534 20.6851 26.0358 21.5762 23.9964 22.256ZM25.1879 15.7027C22.8842 16.4706 19.8093 16.8935 16.53 16.8935C13.2507 16.8935 10.1758 16.4706 7.87209 15.7027C5.93769 15.058 4.74479 14.2231 4.62683 13.4454C7.18506 14.5363 11.0316 15.1064 14.7428 15.1064C19.9654 15.1064 25.4568 13.9775 27.2466 11.8564C28.0222 12.3382 28.4449 12.8505 28.4449 13.3191C28.4449 14.1318 27.2273 15.0229 25.1879 15.7027Z" fill="#8C919C"/>
</svg>
