<svg width="22" height="22" viewBox="0 0 22 22" fill="none" xmlns="http://www.w3.org/2000/svg">
<circle cx="11" cy="11" r="11" fill="url(#paint0_linear)"/>
<path fill-rule="evenodd" clip-rule="evenodd" d="M14.6732 6.11133H15.5453L16.23 6.99723L15.7907 7.56158L14.6732 6.11133ZM16.417 6.75534L16.6496 6.45348C16.7529 6.31567 16.6625 6.1188 16.4881 6.1188H15.926L16.417 6.75534ZM12.1667 8.1444L11.7403 8.69563L13.3295 10.7627C13.3327 10.7595 13.3343 10.7562 13.3359 10.7529C13.3375 10.7496 13.3392 10.7463 13.3424 10.743L13.7558 10.2115L12.1667 8.1444ZM14.9119 15.8825H15.7129L10.9326 9.7534L10.5321 10.2653L14.9119 15.8825ZM16.0935 15.8831L11.1194 9.50459L11.5522 8.9468L16.662 15.5747C16.733 15.7125 16.649 15.8831 16.4875 15.8831H16.0935ZM12.9754 7.09458L13.4018 6.54335L14.9909 8.60389L14.5646 9.15512L12.9754 7.09458ZM12.7866 7.33781L12.3538 7.90216L13.9429 9.9627L14.3757 9.39835L12.7866 7.33781ZM10.3444 10.5152L10.17 10.7448C10.0537 10.8958 10.0537 11.1123 10.17 11.2633L13.6131 15.7321C13.6906 15.8306 13.8069 15.8896 13.9361 15.8896H14.5369L10.3444 10.5152ZM13.9367 6.11133H14.2984L15.6033 7.80438L15.1834 8.35561L13.5943 6.29507L13.6137 6.26882C13.6912 6.17039 13.8139 6.11133 13.9367 6.11133Z" fill="url(#paint1_linear)"/>
<path d="M8.5455 10.7382C8.66178 10.8891 8.66178 11.1057 8.5455 11.2566L5.23804 15.5483C5.13468 15.6861 5.22512 15.883 5.39954 15.883H7.95765C8.08039 15.883 8.20313 15.8239 8.28065 15.7255L11.7173 11.2566C11.8336 11.1057 11.8336 10.8891 11.7173 10.7382L8.27419 6.26931C8.19667 6.17088 8.08039 6.11182 7.95119 6.11182H5.39954C5.23158 6.11182 5.13468 6.31525 5.23804 6.44649L8.5455 10.7382Z" fill="white"/>
<defs>
<linearGradient id="paint0_linear" x1="7.13514" y1="2.97297" x2="37.7568" y2="-13.6757" gradientUnits="userSpaceOnUse">
<stop stop-color="#2853EB"/>
</linearGradient>
<linearGradient id="paint1_linear" x1="14.2252" y1="10.3415" x2="11.158" y2="10.6856" gradientUnits="userSpaceOnUse">
<stop stop-color="white"/>
<stop offset="1" stop-color="white" stop-opacity="0.4"/>
</linearGradient>
</defs>
</svg>
